<svg width="1280" height="720" viewBox="0 0 1280 720" fill="none" xmlns="http://www.w3.org/2000/svg">
  <defs>
    <linearGradient id="bg2" x1="0" y1="0" x2="1280" y2="720" gradientUnits="userSpaceOnUse">
      <stop stop-color="#0A0F14"/>
      <stop offset="1" stop-color="#121B22"/>
    </linearGradient>
    <linearGradient id="card2" x1="0" y1="0" x2="1" y2="1">
      <stop stop-color="#17222B"/>
      <stop offset="1" stop-color="#0D141A"/>
    </linearGradient>
  </defs>
  <rect width="1280" height="720" rx="36" fill="url(#bg2)"/>
  <text x="78" y="92" fill="#D8E0E9" font-family="'Segoe UI', 'PingFang SC', sans-serif" font-size="30">README Preview Assets · 界面构成示意</text>

  <rect x="72" y="130" width="1136" height="520" rx="28" fill="#0E151D" stroke="white" stroke-opacity="0.08"/>
  <rect x="98" y="158" width="760" height="184" rx="24" fill="url(#card2)" stroke="white" stroke-opacity="0.06"/>
  <text x="126" y="196" fill="#A4B1C0" font-family="'Segoe UI', 'PingFang SC', sans-serif" font-size="18">主时钟卡片 / Main Clock Hero</text>
  <text x="126" y="262" fill="#F6F8FB" font-family="'Segoe UI Semibold', 'PingFang SC', sans-serif" font-size="74">20:58:36</text>
  <text x="432" y="262" fill="#C9FF55" font-family="'Segoe UI Semibold', 'PingFang SC', sans-serif" font-size="40">.8</text>
  <rect x="126" y="284" width="220" height="18" rx="9" fill="#C9FF55" fill-opacity="0.85"/>
  <rect x="356" y="284" width="170" height="18" rx="9" fill="#FFFFFF" fill-opacity="0.08"/>
  <rect x="536" y="284" width="110" height="18" rx="9" fill="#FFFFFF" fill-opacity="0.08"/>
  <rect x="676" y="202" width="142" height="34" rx="17" fill="#C9FF55" fill-opacity="0.12" stroke="#C9FF55" stroke-opacity="0.28"/>
  <text x="700" y="224" fill="#F6F8FB" font-family="'Segoe UI', 'PingFang SC', sans-serif" font-size="16">深浅主题切换</text>
  <rect x="676" y="246" width="142" height="34" rx="17" fill="#55E0FF" fill-opacity="0.10" stroke="#55E0FF" stroke-opacity="0.24"/>
  <text x="706" y="268" fill="#F6F8FB" font-family="'Segoe UI', 'PingFang SC', sans-serif" font-size="16">中文 / EN</text>

  <rect x="98" y="366" width="760" height="256" rx="24" fill="url(#card2)" stroke="white" stroke-opacity="0.06"/>
  <text x="126" y="404" fill="#A4B1C0" font-family="'Segoe UI', 'PingFang SC', sans-serif" font-size="18">动态图表舱 / Telemetry Charts</text>
  <rect x="126" y="456" width="92" height="126" rx="16" fill="#0A1016" stroke="white" stroke-opacity="0.06"/>
  <rect x="240" y="438" width="92" height="144" rx="16" fill="#0A1016" stroke="white" stroke-opacity="0.06"/>
  <rect x="354" y="476" width="92" height="106" rx="16" fill="#0A1016" stroke="white" stroke-opacity="0.06"/>
  <rect x="134" y="496" width="76" height="78" rx="12" fill="#59E39A"/>
  <rect x="248" y="470" width="76" height="104" rx="12" fill="#58D8FF"/>
  <rect x="362" y="520" width="76" height="54" rx="12" fill="#F7C84E"/>
  <circle cx="660" cy="512" r="74" stroke="#243241" stroke-width="18"/>
  <circle cx="660" cy="512" r="74" stroke="#C9FF55" stroke-width="18" stroke-dasharray="290 465" stroke-linecap="round" transform="rotate(-90 660 512)"/>
  <text x="610" y="502" fill="#A4B1C0" font-family="'Segoe UI', 'PingFang SC', sans-serif" font-size="16">Single Source</text>
  <text x="620" y="538" fill="#F6F8FB" font-family="'Segoe UI Semibold', 'PingFang SC', sans-serif" font-size="36">46 ms</text>

  <rect x="884" y="158" width="298" height="464" rx="24" fill="url(#card2)" stroke="white" stroke-opacity="0.06"/>
  <text x="912" y="196" fill="#A4B1C0" font-family="'Segoe UI', 'PingFang SC', sans-serif" font-size="18">侧栏信息 / Side Insights</text>
  <rect x="912" y="226" width="242" height="92" rx="18" fill="#101821" stroke="white" stroke-opacity="0.06"/>
  <text x="936" y="258" fill="#A4B1C0" font-family="'Segoe UI', 'PingFang SC', sans-serif" font-size="16">延迟排名</text>
  <text x="936" y="292" fill="#F6F8FB" font-family="'Segoe UI Semibold', 'PingFang SC', sans-serif" font-size="34">TOP 3</text>
  <rect x="912" y="336" width="242" height="92" rx="18" fill="#101821" stroke="white" stroke-opacity="0.06"/>
  <text x="936" y="368" fill="#A4B1C0" font-family="'Segoe UI', 'PingFang SC', sans-serif" font-size="16">偏差排名</text>
  <text x="936" y="402" fill="#F6F8FB" font-family="'Segoe UI Semibold', 'PingFang SC', sans-serif" font-size="34">OFFSET</text>
  <rect x="912" y="446" width="242" height="136" rx="18" fill="#101821" stroke="white" stroke-opacity="0.06"/>
  <text x="936" y="478" fill="#A4B1C0" font-family="'Segoe UI', 'PingFang SC', sans-serif" font-size="16">最近错误</text>
  <rect x="936" y="500" width="182" height="12" rx="6" fill="#FFFFFF" fill-opacity="0.08"/>
  <rect x="936" y="526" width="166" height="12" rx="6" fill="#FFFFFF" fill-opacity="0.08"/>
  <rect x="936" y="552" width="140" height="12" rx="6" fill="#FFFFFF" fill-opacity="0.08"/>
</svg>
