<svg width="1280" height="720" viewBox="0 0 1280 720" fill="none" xmlns="http://www.w3.org/2000/svg">
  <defs>
    <linearGradient id="bg" x1="120" y1="60" x2="1170" y2="660" gradientUnits="userSpaceOnUse">
      <stop stop-color="#07120D"/>
      <stop offset="0.5" stop-color="#0B1118"/>
      <stop offset="1" stop-color="#111827"/>
    </linearGradient>
    <linearGradient id="card" x1="0" y1="0" x2="1" y2="1">
      <stop stop-color="#18212D" stop-opacity="0.94"/>
      <stop offset="1" stop-color="#0E141B" stop-opacity="0.92"/>
    </linearGradient>
    <linearGradient id="lime" x1="0" y1="0" x2="0" y2="1">
      <stop stop-color="#C9FF55"/>
      <stop offset="1" stop-color="#57D98B"/>
    </linearGradient>
    <linearGradient id="cyan" x1="0" y1="0" x2="1" y2="1">
      <stop stop-color="#4DEBFF" stop-opacity="0.9"/>
      <stop offset="1" stop-color="#4D7CFF" stop-opacity="0.55"/>
    </linearGradient>
    <filter id="blurA" x="-200" y="-200" width="700" height="700" filterUnits="userSpaceOnUse" color-interpolation-filters="sRGB">
      <feGaussianBlur stdDeviation="80"/>
    </filter>
    <filter id="blurB" x="840" y="50" width="520" height="520" filterUnits="userSpaceOnUse" color-interpolation-filters="sRGB">
      <feGaussianBlur stdDeviation="60"/>
    </filter>
  </defs>

  <rect width="1280" height="720" rx="36" fill="url(#bg)"/>
  <circle cx="145" cy="118" r="120" fill="#C9FF55" fill-opacity="0.13" filter="url(#blurA)"/>
  <circle cx="1090" cy="250" r="90" fill="#55E0FF" fill-opacity="0.18" filter="url(#blurB)"/>

  <rect x="56" y="54" width="1168" height="612" rx="30" stroke="white" stroke-opacity="0.08"/>
  <rect x="82" y="82" width="1116" height="556" rx="28" fill="url(#card)" stroke="white" stroke-opacity="0.06"/>

  <text x="128" y="154" fill="#B7C1CF" font-family="'Segoe UI', 'PingFang SC', sans-serif" font-size="22" letter-spacing="4">WHATTIME · MULTI-SOURCE TIME DASHBOARD</text>
  <text x="128" y="244" fill="#F5F7FA" font-family="'Segoe UI Semibold', 'PingFang SC', sans-serif" font-size="68">多源时间看板</text>
  <text x="128" y="322" fill="#C9FF55" font-family="'Segoe UI Semibold', 'PingFang SC', sans-serif" font-size="62">快读、聚合、校准、可视化</text>
  <text x="128" y="388" fill="#96A4B6" font-family="'Segoe UI', 'PingFang SC', sans-serif" font-size="26">Vue 3 + TypeScript · Node / Vercel / 阿里云 FC · 深浅主题 · 中英切换 · 动态图表</text>

  <g transform="translate(128 446)">
    <rect width="170" height="44" rx="22" fill="#C9FF55" fill-opacity="0.16" stroke="#C9FF55" stroke-opacity="0.28"/>
    <text x="26" y="29" fill="#F5F7FA" font-family="'Segoe UI', 'PingFang SC', sans-serif" font-size="20">多源聚合 API</text>
  </g>
  <g transform="translate(318 446)">
    <rect width="148" height="44" rx="22" fill="#55E0FF" fill-opacity="0.12" stroke="#55E0FF" stroke-opacity="0.22"/>
    <text x="28" y="29" fill="#F5F7FA" font-family="'Segoe UI', 'PingFang SC', sans-serif" font-size="20">画中画主时钟</text>
  </g>
  <g transform="translate(485 446)">
    <rect width="150" height="44" rx="22" fill="#FFFFFF" fill-opacity="0.08" stroke="#FFFFFF" stroke-opacity="0.16"/>
    <text x="30" y="29" fill="#F5F7FA" font-family="'Segoe UI', 'PingFang SC', sans-serif" font-size="20">动态图表舱</text>
  </g>

  <g transform="translate(760 126)">
    <rect width="360" height="440" rx="28" fill="#101821" stroke="white" stroke-opacity="0.08"/>
    <rect x="26" y="28" width="308" height="112" rx="22" fill="#121E29" stroke="white" stroke-opacity="0.05"/>
    <text x="48" y="64" fill="#A8B4C4" font-family="'Segoe UI', 'PingFang SC', sans-serif" font-size="18">REFERENCE CLOCK</text>
    <text x="48" y="108" fill="#F5F7FA" font-family="'Segoe UI Semibold', 'PingFang SC', sans-serif" font-size="52">20:58:36</text>
    <text x="264" y="108" fill="#C9FF55" font-family="'Segoe UI Semibold', 'PingFang SC', sans-serif" font-size="34">.8</text>
    <rect x="48" y="160" width="72" height="180" rx="16" fill="#0F151C" stroke="white" stroke-opacity="0.06"/>
    <rect x="144" y="160" width="72" height="180" rx="16" fill="#0F151C" stroke="white" stroke-opacity="0.06"/>
    <rect x="240" y="160" width="72" height="180" rx="16" fill="#0F151C" stroke="white" stroke-opacity="0.06"/>
    <rect x="56" y="222" width="56" height="110" rx="12" fill="url(#lime)"/>
    <rect x="152" y="186" width="56" height="146" rx="12" fill="url(#cyan)"/>
    <rect x="248" y="252" width="56" height="80" rx="12" fill="#F6C64B"/>
    <text x="56" y="366" fill="#A8B4C4" font-family="'Segoe UI', 'PingFang SC', sans-serif" font-size="16">淘宝</text>
    <text x="152" y="366" fill="#A8B4C4" font-family="'Segoe UI', 'PingFang SC', sans-serif" font-size="16">美团</text>
    <text x="248" y="366" fill="#A8B4C4" font-family="'Segoe UI', 'PingFang SC', sans-serif" font-size="16">苏宁</text>
    <rect x="26" y="388" width="308" height="26" rx="13" fill="#0F151C" stroke="white" stroke-opacity="0.06"/>
    <rect x="36" y="394" width="136" height="14" rx="7" fill="#C9FF55" fill-opacity="0.82"/>
    <rect x="26" y="424" width="94" height="14" rx="7" fill="#FFFFFF" fill-opacity="0.12"/>
    <rect x="128" y="424" width="74" height="14" rx="7" fill="#FFFFFF" fill-opacity="0.08"/>
    <rect x="210" y="424" width="64" height="14" rx="7" fill="#FFFFFF" fill-opacity="0.08"/>
  </g>
</svg>
